<mxfile host="65bd71144e">
    <diagram id="Wl1pykvxas4ZJPK3ME9j" name="Page-1">
        <mxGraphModel dx="1038" dy="661" grid="1" gridSize="10" guides="1" tooltips="1" connect="1" arrows="1" fold="1" page="1" pageScale="1" pageWidth="827" pageHeight="1169" background="none" math="0" shadow="0">
            <root>
                <mxCell id="0"/>
                <mxCell id="1" parent="0"/>
                <mxCell id="223" value="" style="rounded=0;whiteSpace=wrap;html=1;" vertex="1" parent="1">
                    <mxGeometry x="69" y="20" width="690" height="390" as="geometry"/>
                </mxCell>
                <mxCell id="224" value="" style="group" vertex="1" connectable="0" parent="1">
                    <mxGeometry x="89" y="40" width="650" height="350" as="geometry"/>
                </mxCell>
                <mxCell id="220" value="" style="group;fontColor=#000000;" parent="224" connectable="0" vertex="1">
                    <mxGeometry y="60" width="240.4" height="143.5" as="geometry"/>
                </mxCell>
                <mxCell id="184" value="&lt;font color=&quot;#000000&quot;&gt;Phone&lt;/font&gt;" style="verticalAlign=top;align=left;shape=cube;size=10;direction=south;fontStyle=0;html=1;boundedLbl=1;spacingLeft=5;fillColor=#FFFFFF;container=0;" parent="220" vertex="1">
                    <mxGeometry width="240.4" height="143.5" as="geometry"/>
                </mxCell>
                <mxCell id="199" value="UNI Workluster App&#10;(Flutter)" style="fontStyle=1;fillColor=#FFFFFF;fontColor=#000000;" parent="220" vertex="1">
                    <mxGeometry x="20.400000000000006" y="73.5" width="149" height="40" as="geometry"/>
                </mxCell>
                <mxCell id="213" value="" style="dashed=0;outlineConnect=0;html=1;align=center;labelPosition=center;verticalLabelPosition=bottom;verticalAlign=top;shape=mxgraph.weblogos.android;fillColor=#A4CA39;strokeColor=none" parent="220" vertex="1">
                    <mxGeometry x="146" y="23" width="31.27" height="37" as="geometry"/>
                </mxCell>
                <mxCell id="214" value="" style="dashed=0;outlineConnect=0;html=1;align=center;labelPosition=center;verticalLabelPosition=bottom;verticalAlign=top;shape=mxgraph.weblogos.apple;fillColor=#1B1C1C;strokeColor=none" parent="220" vertex="1">
                    <mxGeometry x="186.00000000000003" y="23.5" width="29.48" height="36" as="geometry"/>
                </mxCell>
                <mxCell id="221" value="" style="group;fillColor=#FFFFFF;" parent="224" connectable="0" vertex="1">
                    <mxGeometry x="350" width="210" height="120" as="geometry"/>
                </mxCell>
                <mxCell id="201" value="SIGARRA Server" style="verticalAlign=top;align=left;shape=cube;size=10;direction=south;fontStyle=0;html=1;boundedLbl=1;spacingLeft=5;container=0;fillColor=#FFFFFF;fontColor=#000000;" parent="221" vertex="1">
                    <mxGeometry width="210" height="120" as="geometry"/>
                </mxCell>
                <mxCell id="203" value="SIGARRA API" style="fontStyle=1;fillColor=#CCCCCC;fontColor=#000000;" parent="221" vertex="1">
                    <mxGeometry x="20" y="56.5" width="110" height="39.48" as="geometry"/>
                </mxCell>
                <mxCell id="202" value="" style="aspect=fixed;perimeter=ellipsePerimeter;html=1;align=center;shadow=0;dashed=0;fontColor=#4277BB;labelBackgroundColor=#ffffff;fontSize=12;spacingTop=3;image;image=img/lib/ibm/infrastructure/mobile_backend.svg;" parent="221" vertex="1">
                    <mxGeometry x="157.5" y="17" width="36.5" height="36.5" as="geometry"/>
                </mxCell>
                <mxCell id="222" value="" style="group;fillColor=#FFFFFF;" parent="224" connectable="0" vertex="1">
                    <mxGeometry x="350" y="140" width="300" height="210" as="geometry"/>
                </mxCell>
                <mxCell id="186" value="&lt;font color=&quot;#000000&quot;&gt;Groups Server&lt;/font&gt;" style="verticalAlign=top;align=left;shape=cube;size=10;direction=south;fontStyle=0;html=1;boundedLbl=1;spacingLeft=5;container=0;fillColor=#FFFFFF;" parent="222" vertex="1">
                    <mxGeometry width="300" height="210" as="geometry"/>
                </mxCell>
                <mxCell id="200" value="Grouping Management Service&#10;(Node.js)" style="fontStyle=1;fillColor=#FFFFFF;fontColor=#000000;" parent="222" vertex="1">
                    <mxGeometry x="20" y="45.25999999999999" width="200" height="40" as="geometry"/>
                </mxCell>
                <mxCell id="197" value="Groups&lt;br&gt;Database" style="shape=datastore;whiteSpace=wrap;html=1;fillColor=#FFFFFF;fontColor=#000000;strokeColor=#000000;" parent="222" vertex="1">
                    <mxGeometry x="82.5" y="110" width="75" height="90" as="geometry"/>
                </mxCell>
                <mxCell id="211" style="edgeStyle=none;html=1;dashed=1;endArrow=open;endFill=0;" parent="222" source="200" target="197" edge="1">
                    <mxGeometry relative="1" as="geometry"/>
                </mxCell>
                <mxCell id="218" value="" style="aspect=fixed;perimeter=ellipsePerimeter;html=1;align=center;shadow=0;dashed=0;fontColor=#4277BB;labelBackgroundColor=#ffffff;fontSize=12;spacingTop=3;image;image=img/lib/ibm/infrastructure/mobile_backend.svg;" parent="222" vertex="1">
                    <mxGeometry x="246" y="17" width="36.5" height="36.5" as="geometry"/>
                </mxCell>
                <mxCell id="219" value="DBMS&#10;(MongoDB)" style="fontStyle=1;fillColor=#CCCCCC;fontColor=#000000;" parent="222" vertex="1">
                    <mxGeometry x="170" y="130" width="103.5" height="50" as="geometry"/>
                </mxCell>
                <mxCell id="193" value="" style="endArrow=none;html=1;exitX=0.697;exitY=-0.001;exitDx=0;exitDy=0;exitPerimeter=0;entryX=0.095;entryY=1;entryDx=0;entryDy=0;entryPerimeter=0;" parent="224" source="184" target="186" edge="1">
                    <mxGeometry width="50" height="50" relative="1" as="geometry">
                        <mxPoint x="239" y="360" as="sourcePoint"/>
                        <mxPoint x="390" y="210" as="targetPoint"/>
                    </mxGeometry>
                </mxCell>
                <mxCell id="205" value="" style="endArrow=none;html=1;entryX=0.583;entryY=1;entryDx=0;entryDy=0;entryPerimeter=0;" parent="224" target="201" edge="1">
                    <mxGeometry width="50" height="50" relative="1" as="geometry">
                        <mxPoint x="240" y="70" as="sourcePoint"/>
                        <mxPoint x="320" y="70" as="targetPoint"/>
                    </mxGeometry>
                </mxCell>
                <mxCell id="206" value="1" style="text;html=1;align=center;verticalAlign=middle;resizable=0;points=[];autosize=1;strokeColor=none;fillColor=none;" parent="224" vertex="1">
                    <mxGeometry x="330" y="50" width="20" height="20" as="geometry"/>
                </mxCell>
                <mxCell id="207" value="*" style="text;html=1;align=center;verticalAlign=middle;resizable=0;points=[];autosize=1;strokeColor=none;fillColor=none;" parent="224" vertex="1">
                    <mxGeometry x="240" y="50" width="20" height="20" as="geometry"/>
                </mxCell>
                <mxCell id="208" value="*" style="text;html=1;align=center;verticalAlign=middle;resizable=0;points=[];autosize=1;strokeColor=none;fillColor=none;" parent="224" vertex="1">
                    <mxGeometry x="240" y="140" width="20" height="20" as="geometry"/>
                </mxCell>
                <mxCell id="210" value="" style="html=1;labelBackgroundColor=#ffffff;startArrow=none;startFill=0;startSize=6;endArrow=open;endFill=0;endSize=6;jettySize=auto;orthogonalLoop=1;strokeWidth=1;dashed=1;fontSize=14;entryX=0;entryY=0.5;entryDx=0;entryDy=0;exitX=1;exitY=0.5;exitDx=0;exitDy=0;" parent="224" source="199" target="203" edge="1">
                    <mxGeometry width="60" height="60" relative="1" as="geometry">
                        <mxPoint x="240.00000000000006" y="-120" as="sourcePoint"/>
                        <mxPoint x="360.52000000000004" y="-22.970000000000027" as="targetPoint"/>
                    </mxGeometry>
                </mxCell>
                <mxCell id="194" value="1" style="text;html=1;align=center;verticalAlign=middle;resizable=0;points=[];autosize=1;strokeColor=none;fillColor=none;" parent="224" vertex="1">
                    <mxGeometry x="330" y="140" width="20" height="20" as="geometry"/>
                </mxCell>
                <mxCell id="209" value="" style="html=1;labelBackgroundColor=#ffffff;startArrow=none;startFill=0;startSize=6;endArrow=open;endFill=0;endSize=6;jettySize=auto;orthogonalLoop=1;strokeWidth=1;dashed=1;fontSize=14;entryX=0;entryY=0.5;entryDx=0;entryDy=0;exitX=1;exitY=0.5;exitDx=0;exitDy=0;" parent="224" source="199" target="200" edge="1">
                    <mxGeometry width="60" height="60" relative="1" as="geometry">
                        <mxPoint x="280" y="340" as="sourcePoint"/>
                        <mxPoint x="340" y="280" as="targetPoint"/>
                    </mxGeometry>
                </mxCell>
            </root>
        </mxGraphModel>
    </diagram>
</mxfile>